<?xml version="1.0" standalone="no"?>
<!DOCTYPE svg PUBLIC "-//W3C//DTD SVG 20010904//EN"
 "http://www.w3.org/TR/2001/REC-SVG-20010904/DTD/svg10.dtd">
<svg version="1.0" xmlns="http://www.w3.org/2000/svg"
 width="800.000000pt" height="800.000000pt" viewBox="0 0 800.000000 800.000000"
 preserveAspectRatio="xMidYMid meet">

<g transform="translate(0.000000,800.000000) scale(0.100000,-0.100000)"
fill="#000000" stroke="none">
<path d="M3310 5283 c-168 -90 -432 -232 -587 -316 -156 -83 -283 -154 -283
-157 0 -3 47 -30 105 -60 l104 -54 43 21 c24 12 93 49 153 81 61 32 236 125
390 207 154 81 304 161 333 176 l53 29 189 -100 188 -100 179 96 c98 54 183
97 189 97 6 0 227 -116 490 -257 l478 -258 93 48 c99 52 129 72 122 78 -4 3
-292 158 -948 509 -124 66 -230 120 -236 120 -6 0 -90 -43 -188 -96 l-178 -97
-188 100 c-104 55 -190 100 -192 99 -2 -1 -141 -75 -309 -166z"/>
<path d="M4885 4684 c-251 -94 -969 -270 -1399 -344 -66 -11 -121 -21 -122
-23 -2 -2 53 -34 123 -71 146 -78 128 -77 349 -21 280 72 653 210 997 371 149
69 167 80 151 91 -22 16 -48 16 -99 -3z"/>
<path d="M4920 4593 c-158 -90 -700 -364 -895 -452 -88 -40 -164 -77 -169 -81
-5 -5 27 -26 71 -49 l80 -40 576 311 577 311 -57 33 c-32 19 -60 33 -63 33 -3
-1 -57 -30 -120 -66z"/>
<path d="M670 3325 l0 -355 90 0 90 0 0 200 c0 110 3 200 8 200 4 0 59 -88
122 -195 l115 -195 81 0 81 0 119 201 119 201 3 -206 2 -206 95 0 95 0 0 355
0 355 -97 0 -98 -1 -155 -259 c-85 -142 -158 -257 -161 -254 -4 2 -76 119
-160 259 l-153 255 -98 0 -98 0 0 -355z"/>
<path d="M1956 3665 c-54 -19 -85 -44 -121 -94 l-30 -43 -3 -176 c-4 -202 2
-235 55 -293 73 -81 85 -84 375 -87 168 -2 277 1 313 8 71 15 131 61 164 125
25 48 26 56 26 225 0 160 -2 178 -22 215 -25 47 -64 85 -113 111 -31 17 -64
19 -320 21 -227 2 -293 0 -324 -12z m530 -150 c50 -21 64 -62 64 -185 0 -190
-14 -200 -284 -200 -193 0 -221 4 -255 41 -19 21 -21 35 -21 155 0 127 1 134
25 163 14 16 36 32 48 34 12 2 104 5 205 6 140 1 191 -2 218 -14z"/>
<path d="M2850 3605 l0 -75 315 0 c427 0 415 6 415 -202 0 -127 0 -128 -29
-160 l-29 -33 -244 0 -243 0 -3 148 -3 147 -89 0 -90 0 0 -231 0 -230 373 3
c360 3 373 4 413 25 53 28 110 92 124 140 7 24 10 101 8 209 -3 170 -3 171
-33 220 -19 30 -49 60 -79 79 l-49 30 -379 3 -378 3 0 -76z"/>
<path d="M3880 3418 c0 -296 3 -313 80 -382 66 -59 117 -68 368 -64 201 3 220
5 258 25 52 28 111 95 124 142 5 20 10 150 10 289 l0 252 -95 0 -95 0 0 -240
0 -240 -29 -32 -29 -33 -172 0 -172 0 -29 33 -29 32 0 240 0 240 -95 0 -95 0
0 -262z"/>
<path d="M4830 3325 l0 -355 378 0 377 1 150 259 c82 143 152 260 155 260 6 0
160 -264 160 -274 0 -3 -48 -7 -107 -8 l-107 -3 -32 -55 c-18 -30 -33 -58 -34
-62 0 -5 82 -8 183 -8 l182 0 30 -55 29 -55 109 0 c60 0 107 4 105 8 -1 5 -95
165 -206 355 l-204 347 -106 0 -107 -1 -129 -222 c-71 -122 -143 -245 -160
-274 l-31 -52 -222 -1 -223 0 0 275 0 275 -95 0 -95 0 0 -355z"/>
<path d="M6450 3325 l0 -355 95 0 95 0 0 280 0 280 203 0 c111 0 218 -5 238
-10 68 -19 76 -110 13 -139 -15 -7 -88 -11 -189 -11 l-165 0 0 -33 c0 -28 19
-51 168 -200 l167 -167 125 0 125 1 -134 127 -134 128 67 11 c107 18 174 79
195 175 24 108 -45 229 -146 257 -23 7 -172 11 -380 11 l-343 0 0 -355z"/>
<path d="M1987 2784 c-4 -4 -7 -103 -7 -221 l0 -213 55 0 55 0 0 120 c0 66 4
120 8 120 4 0 38 -52 75 -115 l68 -115 52 0 53 0 72 123 72 122 0 -127 0 -128
60 0 60 0 -2 218 -3 217 -56 3 -56 3 -93 -156 c-51 -85 -96 -158 -101 -160 -4
-3 -50 66 -102 152 l-94 158 -55 3 c-29 2 -57 0 -61 -4z"/>
<path d="M2920 2570 l0 -220 55 0 55 0 0 220 0 220 -55 0 -55 0 0 -220z"/>
<path d="M3350 2570 l0 -220 55 0 55 0 0 140 c0 77 3 140 6 140 4 0 73 -63
154 -140 l148 -140 61 0 61 0 -2 218 -3 217 -57 3 -57 3 -3 -144 -3 -145 -152
144 -152 144 -56 0 -55 0 0 -220z"/>
<path d="M4200 2570 l0 -220 55 0 55 0 0 220 0 220 -55 0 -55 0 0 -220z"/>
<path d="M4630 2570 l0 -220 55 0 55 0 0 140 c0 77 3 140 6 140 4 0 73 -63
154 -140 l148 -140 61 0 61 0 -2 218 -3 217 -57 3 -57 3 -3 -145 -3 -144 -152
144 -152 144 -56 0 -55 0 0 -220z"/>
<path d="M5539 2781 c-86 -27 -109 -72 -109 -213 0 -126 15 -162 80 -195 41
-21 58 -23 215 -23 142 0 176 3 204 18 59 29 76 62 80 158 l3 84 -118 0 -119
0 -23 -40 -23 -40 81 0 c78 0 80 -1 80 -24 0 -56 0 -56 -160 -56 -183 0 -185
1 -185 120 0 122 -7 119 249 122 l211 3 0 45 0 45 -220 2 c-121 1 -232 -2
-246 -6z"/>
</g>
</svg>
